<svg id="Layer_1" data-name="Layer 1" xmlns="http://www.w3.org/2000/svg" viewBox="0 0 512 512"><title>bell-glyph</title><path d="M398.61,416H113.39a44.26,44.26,0,0,0,7.11,36.75,39.72,39.72,0,0,0,32.18,16.58h51.06a53.34,53.34,0,0,0,104.52,0h51.06a39.72,39.72,0,0,0,32.18-16.58A44.26,44.26,0,0,0,398.61,416ZM256,490.67a32,32,0,0,1-30.13-21.33h60.27A32,32,0,0,1,256,490.67Zm135.35-98.44a324.69,324.69,0,0,1-14.74-96.93V282.67c0-52.48-29.93-97.67-72.61-117.4V133.33a10.67,10.67,0,0,0-10.67-10.67H288a32,32,0,0,0-21.33-30.13V10.67a10.67,10.67,0,0,0-21.33,0V92.53A32,32,0,0,0,224,122.67h-5.33A10.67,10.67,0,0,0,208,133.33v31.94c-42.68,19.73-72.61,64.92-72.61,117.4v12.63a324.69,324.69,0,0,1-14.74,96.93l-.76,2.44H392.11ZM256,112a10.68,10.68,0,0,1,10.67,10.67H245.33A10.68,10.68,0,0,1,256,112Zm-26.67,45.86V144h53.33v13.86a113,113,0,0,0-53.33,0Z"/></svg>