<svg id="Layer_1" data-name="Layer 1" xmlns="http://www.w3.org/2000/svg" xmlns:xlink="http://www.w3.org/1999/xlink" viewBox="0 0 512 512"><defs><radialGradient id="radial-gradient" cx="-291.2" cy="-269.2" r="342.35" gradientTransform="translate(814.78 463.66) scale(1.98 1.98)" gradientUnits="userSpaceOnUse"><stop offset="0" stop-color="#cce3ee"/><stop offset="0.02" stop-color="#b0d9ea"/><stop offset="0.07" stop-color="#7bc6e3"/><stop offset="0.12" stop-color="#4fb6dd"/><stop offset="0.17" stop-color="#2da9d9"/><stop offset="0.22" stop-color="#14a0d6"/><stop offset="0.26" stop-color="#059bd4"/><stop offset="0.29" stop-color="#0099d3"/><stop offset="0.65" stop-color="#006e98"/><stop offset="0.89" stop-color="#0e3e6c"/><stop offset="1" stop-color="#152757"/></radialGradient></defs><title>ringing-wifi-telephone-other</title><path d="M255.9,2.77C116.05,2.77,3,116.07,3,255.79,3,396.08,116.05,509.23,255.9,509.23,395.59,509.23,509,396.08,509,255.79,509,116.07,395.59,2.77,255.9,2.77ZM262.43,122a131.83,131.83,0,0,1,37.81,5,131.59,131.59,0,0,1,28.91,13.08,43.7,43.7,0,0,1,7.5,5.7c2.23,1.81,6.12,5,8.21,7a96.75,96.75,0,0,1,9.31,7.92c10.7,9.19,18.35,21.43,24.74,34.37,4.73,10.3,7.79,21.43,10,32.71.14,2.24,1.11,4.6-1,7-6.26.56-12.37.56-18.49,1-2.22.41-3.06,0-3.33-2.37C363.34,212,354.59,193.3,340,178c-21.14-23-47.68-34.09-79-33.26h-3.62c-.56-6.4-.56-13.35-.84-20.45C258,122,260.34,122,262.43,122Zm42,68.48a65.32,65.32,0,0,0-40-12.1c-2.49,0-3.06-.43-3.33-2.79a132.8,132.8,0,0,0-1.39-16.7c0-1.94.56-2.37,2.23-2.37,23.34-1,43.91,6.54,62,21.43,17.09,14.89,27.53,33.55,31,55.81.41,2.79-.28,3.76-2.92,3.76a94,94,0,0,0-16.41,1.52c-1.67,0-2.36-.56-2.49-2.49C330.26,217,320.4,201.65,304.41,190.52Zm17.51,47.6c0,1.81-.56,1.81-1.94,1.81-6.26.41-12.38,1.4-19.19,1.81-2.51-18.23-16.13-30.75-34.19-31.18-1.81,0-2.5,0-2.5-1.94-.43-5.43-.84-11.14-1.67-16.85,0-1.67.27-2.22,1.94-2.22C291.34,187.6,319,211,321.92,238.12Zm75.34,98.68c-2.22,29.36-24.47,44.39-50.87,51.35C340.55,390,334.71,390,328.59,390a99.39,99.39,0,0,1-29.19-4.73c-64.21-18.64-112.31-58.59-151.24-111.62-14.73-20.18-28.07-40.63-32.8-65.41q-7.73-44.66,25.56-75.43c7-6.54,28.37-9.32,37-5.14,3.06,1.4,5.14,4,6.68,7.51,8.06,19.07,16,38.28,23.91,57.35,1.67,3.62.83,7.37-.84,11.13-4,8.76-10.56,15.73-17.38,23.24-4.87,5-5.14,9.75-1.38,15.86,22.79,37.72,54.06,65.27,94.93,81.7,6.41,2.64,11,1.67,15-3.35,6.95-8.48,14.18-17,20.57-25.74,4.46-6,9.47-6.83,15.71-4,13.76,6,27.1,12.53,40.72,19.07,3.06,1.4,6,2.65,9,4C398.65,321.49,398.37,321.49,397.26,336.8Z" fill="url(#radial-gradient)"/><path d="M257.88,4.75C118,4.75,5,118.05,5,257.77,5,398.06,118,511.2,257.88,511.2,397.57,511.2,511,398.06,511,257.77,511,118.05,397.57,4.75,257.88,4.75ZM264.41,124a131.83,131.83,0,0,1,37.81,5,131.59,131.59,0,0,1,28.91,13.08,43.7,43.7,0,0,1,7.5,5.7c2.23,1.81,6.12,5,8.21,7a96.75,96.75,0,0,1,9.31,7.92c10.7,9.19,18.35,21.43,24.74,34.37,4.73,10.3,7.79,21.43,10,32.71.14,2.24,1.11,4.6-1,7-6.26.56-12.37.56-18.49,1-2.22.41-3.06,0-3.33-2.37-2.79-21.43-11.54-40.09-26.13-55.4-21.14-23-47.68-34.09-79-33.26H259.4c-.56-6.4-.56-13.35-.84-20.45C260,124,262.32,124,264.41,124Zm42,68.48a65.32,65.32,0,0,0-40-12.1c-2.49,0-3.06-.43-3.33-2.79a132.8,132.8,0,0,0-1.39-16.7c0-1.94.56-2.37,2.23-2.37,23.34-1,43.91,6.54,62,21.43,17.09,14.89,27.53,33.55,31,55.81.41,2.79-.28,3.76-2.92,3.76a94,94,0,0,0-16.41,1.52c-1.67,0-2.36-.56-2.49-2.49C332.23,219,322.37,203.63,306.39,192.5Zm17.51,47.6c0,1.81-.56,1.81-1.94,1.81-6.26.41-12.38,1.4-19.19,1.81-2.51-18.23-16.13-30.75-34.19-31.18-1.81,0-2.5,0-2.5-1.94-.43-5.43-.84-11.14-1.67-16.85,0-1.67.27-2.22,1.94-2.22C293.32,189.58,321,213,323.89,240.1Zm75.34,98.68c-2.22,29.36-24.47,44.39-50.87,51.35-5.84,1.81-11.67,1.81-17.79,1.81a99.39,99.39,0,0,1-29.19-4.73c-64.21-18.64-112.31-58.59-151.24-111.62-14.73-20.18-28.07-40.63-32.8-65.41q-7.73-44.66,25.56-75.43c7-6.54,28.37-9.32,37-5.14,3.06,1.4,5.14,4,6.68,7.51,8.06,19.07,16,38.28,23.91,57.35,1.67,3.62.83,7.37-.84,11.13-4,8.76-10.56,15.73-17.38,23.24-4.87,5-5.14,9.75-1.38,15.86,22.79,37.72,54.06,65.27,94.93,81.7,6.41,2.64,11,1.67,15-3.35,6.95-8.48,14.18-17,20.57-25.74,4.46-6,9.47-6.83,15.71-4,13.76,6,27.1,12.53,40.72,19.07,3.06,1.4,6,2.65,9,4C400.63,323.47,400.34,323.47,399.23,338.78Z" fill="none" stroke="#0f2975" stroke-width="2"/><path d="M253.92.8C114.08.8,1,114.09,1,253.82,1,394.11,114.08,507.25,253.92,507.25,393.62,507.25,507,394.11,507,253.82,507,114.09,393.62.8,253.92.8Zm6.53,119.27a131.83,131.83,0,0,1,37.81,5,131.59,131.59,0,0,1,28.91,13.08,43.7,43.7,0,0,1,7.5,5.7c2.23,1.81,6.12,5,8.21,7a96.75,96.75,0,0,1,9.31,7.92c10.7,9.19,18.35,21.43,24.74,34.37,4.73,10.3,7.79,21.43,10,32.71.14,2.24,1.11,4.6-1,7-6.26.56-12.37.56-18.49,1-2.22.41-3.06,0-3.33-2.37C361.36,210,352.61,191.32,338,176c-21.14-23-47.68-34.09-79-33.26h-3.62c-.56-6.4-.56-13.35-.84-20.45C256,120.07,258.37,120.07,260.46,120.07Zm42,68.48a65.32,65.32,0,0,0-40-12.1c-2.49,0-3.06-.43-3.33-2.79a132.8,132.8,0,0,0-1.39-16.7c0-1.94.56-2.37,2.23-2.37,23.34-1,43.91,6.54,62,21.43,17.09,14.89,27.53,33.55,31,55.81.41,2.79-.28,3.76-2.92,3.76a94,94,0,0,0-16.41,1.52c-1.67,0-2.36-.56-2.49-2.49C328.28,215,318.42,199.67,302.43,188.54Zm17.51,47.6c0,1.81-.56,1.81-1.94,1.81-6.26.41-12.38,1.4-19.19,1.81-2.51-18.23-16.13-30.75-34.19-31.18-1.81,0-2.5,0-2.5-1.94-.43-5.43-.84-11.14-1.67-16.85,0-1.67.27-2.22,1.94-2.22C289.37,185.62,317,209,319.94,236.14Zm75.34,98.68c-2.22,29.36-24.47,44.39-50.87,51.35C338.57,388,332.74,388,326.62,388a99.39,99.39,0,0,1-29.19-4.73c-64.21-18.64-112.31-58.59-151.24-111.62-14.73-20.18-28.07-40.63-32.8-65.41q-7.73-44.66,25.56-75.43c7-6.54,28.37-9.32,37-5.14,3.06,1.4,5.14,4,6.68,7.51,8.06,19.07,16,38.28,23.91,57.35,1.67,3.62.83,7.37-.84,11.13-4,8.76-10.56,15.73-17.38,23.24-4.87,5-5.14,9.75-1.38,15.86,22.79,37.72,54.06,65.27,94.93,81.7,6.41,2.64,11,1.67,15-3.35,6.95-8.48,14.18-17,20.57-25.74,4.46-6,9.47-6.83,15.71-4,13.76,6,27.1,12.53,40.72,19.07,3.06,1.4,6,2.65,9,4C396.68,319.51,396.39,319.51,395.28,334.82Z" fill="none" stroke="#cad8e9" stroke-width="2"/><path d="M255.9,2.77C116.05,2.77,3,116.07,3,255.79,3,396.08,116.05,509.23,255.9,509.23,395.59,509.23,509,396.08,509,255.79,509,116.07,395.59,2.77,255.9,2.77ZM262.43,122a131.83,131.83,0,0,1,37.81,5,131.59,131.59,0,0,1,28.91,13.08,43.7,43.7,0,0,1,7.5,5.7c2.23,1.81,6.12,5,8.21,7a96.75,96.75,0,0,1,9.31,7.92c10.7,9.19,18.35,21.43,24.74,34.37,4.73,10.3,7.79,21.43,10,32.71.14,2.24,1.11,4.6-1,7-6.26.56-12.37.56-18.49,1-2.22.41-3.06,0-3.33-2.37C363.34,212,354.59,193.3,340,178c-21.14-23-47.68-34.09-79-33.26h-3.62c-.56-6.4-.56-13.35-.84-20.45C258,122,260.34,122,262.43,122Zm42,68.48a65.32,65.32,0,0,0-40-12.1c-2.49,0-3.06-.43-3.33-2.79a132.8,132.8,0,0,0-1.39-16.7c0-1.94.56-2.37,2.23-2.37,23.34-1,43.91,6.54,62,21.43,17.09,14.89,27.53,33.55,31,55.81.41,2.79-.28,3.76-2.92,3.76a94,94,0,0,0-16.41,1.52c-1.67,0-2.36-.56-2.49-2.49C330.26,217,320.4,201.65,304.41,190.52Zm17.51,47.6c0,1.81-.56,1.81-1.94,1.81-6.26.41-12.38,1.4-19.19,1.81-2.51-18.23-16.13-30.75-34.19-31.18-1.81,0-2.5,0-2.5-1.94-.43-5.43-.84-11.14-1.67-16.85,0-1.67.27-2.22,1.94-2.22C291.34,187.6,319,211,321.92,238.12Zm75.34,98.68c-2.22,29.36-24.47,44.39-50.87,51.35C340.55,390,334.71,390,328.59,390a99.39,99.39,0,0,1-29.19-4.73c-64.21-18.64-112.31-58.59-151.24-111.62-14.73-20.18-28.07-40.63-32.8-65.41q-7.73-44.66,25.56-75.43c7-6.54,28.37-9.32,37-5.14,3.06,1.4,5.14,4,6.68,7.51,8.06,19.07,16,38.28,23.91,57.35,1.67,3.62.83,7.37-.84,11.13-4,8.76-10.56,15.73-17.38,23.24-4.87,5-5.14,9.75-1.38,15.86,22.79,37.72,54.06,65.27,94.93,81.7,6.41,2.64,11,1.67,15-3.35,6.95-8.48,14.18-17,20.57-25.74,4.46-6,9.47-6.83,15.71-4,13.76,6,27.1,12.53,40.72,19.07,3.06,1.4,6,2.65,9,4C398.65,321.49,398.37,321.49,397.26,336.8Z" fill="none" stroke="#8daed4" stroke-width="2"/></svg>