<?xml version="1.0" encoding="utf-8"?>
<!-- Generator: Adobe Illustrator 19.2.1, SVG Export Plug-In . SVG Version: 6.00 Build 0)  -->
<svg version="1.1" id="layer" xmlns="http://www.w3.org/2000/svg" xmlns:xlink="http://www.w3.org/1999/xlink" x="0px" y="0px"
	 viewBox="0 0 652 652" style="enable-background:new 0 0 652 652;" xml:space="preserve">
<style type="text/css">
	.st0{fill-rule:evenodd;clip-rule:evenodd;}
	.st1{fill-rule:evenodd;clip-rule:evenodd;fill:#2A5BA9;}
	.st2{fill-rule:evenodd;clip-rule:evenodd;fill:#FFFFFF;}
</style>
<g>
	<path d="M182.1,343.5l0-50.2h-0.4c-1.8,1.6-8.4,1.8-11.2,1.8h-4.9v0.4c5.6,3.4,4.8,8.5,4.8,14.8l0,21.2c0,10.6-10.4,18.1-18.8,18.1
		c-11.1,0-15.7-7.9-15.7-20.6v-35.8h-0.4c-1.8,1.6-8.4,1.8-11.2,1.8h-4.8v0.4c5.6,3.4,4.8,8.5,4.8,14.8v21.2
		c0,19.4,8.4,28.6,23.4,28.6c8.9,0,18.1-3.2,22.7-10.7v9.2h16.4v-0.4C181.3,355,182.1,349.9,182.1,343.5"/>
	<path d="M253.8,324.7c0.5-17.7-11.3-31.1-28.7-31.1c-19,0-31.8,13.8-31.8,32.9c0,19.2,14.9,33.9,36.6,33.9c6,0,12.1-0.9,17.6-3.4
		l6.4-12.9h-0.4c-5.9,5-13.2,7.3-20.9,7.3c-14.4,0-25.2-9.8-25.5-26.7 M207.5,316.7c1.5-8.6,7.9-14.1,16.4-14.1
		c9.2,0,15,4.5,16.4,14.1H207.5z"/>
	<path d="M263.9,264.2c3,0,9.3-0.2,11.2-2h0.4V349c3.4,1,7,1.6,10.5,1.6c13.9,0,21.9-9.7,21.9-23.3c0-13.3-6.2-23.6-19-23.6
		c-4.1,0-7.2,1.1-10.6,3l6.8-11.7c2.9-1.1,5.9-1.5,9-1.5c14.4,0,26.7,12.5,26.7,31.3c0,21.5-14.6,35.4-37.6,35.4
		c-8.6,0-16.9-1.5-23.1-2.5v-0.4c4.2-1.9,3.8-6.5,3.8-11v-63.2c0-6.3,0.8-15.2-4.7-18.7v-0.4"/>
	<path d="M389.6,324.7c0.5-17.7-11.3-31.1-28.7-31.1c-19,0-31.8,13.8-31.8,32.9c0,19.2,14.9,33.9,36.6,33.9c6,0,12.1-0.9,17.6-3.4
		l6.4-12.9h-0.4c-5.9,5-13.3,7.3-20.9,7.3c-14.4,0-25.2-9.8-25.5-26.7 M343.3,316.7c1.5-8.6,7.9-14.1,16.4-14.1
		c9.2,0,15,4.5,16.4,14.1H343.3z"/>
	<path d="M446.5,309.3h-0.4c-3.7-4.6-9.8-6.8-15.5-6.8c-12.4,0-21.3,9.4-21.3,22.5c0,15.9,12.4,26.3,26.5,26.3
		c6.5,0,13.6-2.8,18.6-6.8h0.4l-6.6,13c-5.4,2.2-11.2,2.7-16.8,2.7c-19.6,0-34.9-13.8-34.9-31.7c0-23.7,17.1-35.1,36.3-35.1
		c4.6,0,9.3,0.5,13.8,1.6"/>
	<path class="st0" d="M237.9,282.2v-13.8c-8.3,3.7-16.1,10.7-21.3,17.6v5.4C229,283,237.9,282.6,237.9,282.2"/>
	<path d="M133.1,372c-14.2,2.3-27.9-2.2-42.4-18.8c14-7,22.7-24.6,22.7-40.8c0-0.2,0-1.9,0-2c-0.3-27.9-21.2-46.2-46.1-46.2
		c-25,0-47.1,19.1-47.3,47.2c0,0.1,0,1.8,0,1.9c0,27.3,20.3,47.6,45.1,47.6c3.6,0,7-0.6,10.4-1.4c16.3,15.2,30.8,21.7,43.3,20.2
		c5.9-0.7,12.2-3.1,16-8 M67.2,350.9c-19.2,0-32.6-21.7-32.6-40.1c0-0.2,0-1.9,0-2.1c0.2-17.9,11.8-34.6,32-34.6
		c21.2,0,32.2,20.1,32.4,39.1v2C98.9,335.4,86.3,350.9,67.2,350.9"/>
	<rect x="477.6" y="264.2" class="st1" width="62.1" height="38.1"/>
	<path class="st2" d="M508.7,266.2c-0.5,0.8-1.5,2-3.2,4.2c-2,2.5-1.6,5.8-0.7,7.7c1.1,2.3,1.7,4.1,2.2,5.9c0.7,2.6,0.2,6,0.3,5.7
		h-1.7c0-4.2-1.3-8.2-4.5-9.9c-4.5-2.5-9,1.8-7.5,6.3c0.8,2.4,2.1,3.2,2.5,3.2c0,0-0.6-2.6,1.3-3.9c1.8-1.2,4-0.5,5,1
		c1,1.4,1.1,3.4,1.1,3.4h-3.2v2.4l6.5,0c0,0-0.2,3.4-3.7,3.1c0,0,0.4,2.7,3.7,1.3c0,0-0.2,2.8,2.1,4.2c2.3-1.4,2.1-4.2,2.1-4.2
		c3.3,1.4,3.7-1.3,3.7-1.3c-3.6,0.3-3.7-3.1-3.7-3.1l6.5,0v-2.4H514c0,0,0.2-1.9,1.1-3.4c1-1.5,3.2-2.2,5-1c1.9,1.3,1.3,3.9,1.3,3.9
		c0.4,0,1.7-0.8,2.5-3.2c1.4-4.5-3-8.8-7.5-6.3c-3.2,1.8-4.5,5.7-4.5,9.9h-1.7c0,0.3-0.4-3.1,0.3-5.7c0.5-1.8,1.1-3.6,2.2-5.9
		c0.9-1.9,1.3-5.3-0.7-7.7C510.2,268.2,509.1,267,508.7,266.2"/>
	<rect x="557.9" y="264.2" class="st1" width="62.2" height="38.1"/>
	<path class="st2" d="M588.9,266.2c-0.5,0.8-1.5,2-3.2,4.2c-2,2.5-1.6,5.8-0.7,7.7c1.1,2.3,1.7,4.1,2.2,5.9c0.7,2.6,0.2,6,0.3,5.7
		h-1.7c0-4.2-1.3-8.2-4.5-9.9c-4.5-2.5-8.9,1.8-7.5,6.3c0.7,2.4,2.1,3.2,2.4,3.2c0,0-0.6-2.6,1.3-3.9c1.8-1.2,3.9-0.5,5,1
		c1,1.4,1.1,3.4,1.1,3.4h-3.2v2.4l6.5,0c0,0-0.2,3.4-3.7,3.1c0,0,0.4,2.7,3.7,1.3c0,0-0.2,2.8,2.1,4.2c2.2-1.4,2.1-4.2,2.1-4.2
		c3.3,1.4,3.7-1.3,3.7-1.3c-3.6,0.3-3.7-3.1-3.7-3.1l6.5,0v-2.4h-3.3c0,0,0.2-1.9,1.1-3.4c1-1.5,3.2-2.2,5-1
		c1.9,1.3,1.3,3.9,1.3,3.9c0.4,0,1.7-0.8,2.4-3.2c1.4-4.5-3-8.8-7.5-6.3c-3.2,1.8-4.5,5.7-4.5,9.9h-1.7c0,0.3-0.4-3.1,0.3-5.7
		c0.5-1.8,1.1-3.6,2.2-5.9c0.9-1.9,1.3-5.3-0.7-7.7C590.4,268.2,589.4,267,588.9,266.2"/>
	<rect x="477.6" y="320.4" class="st1" width="62.1" height="38.1"/>
	<path class="st2" d="M508.7,322.4c-0.5,0.8-1.5,2-3.2,4.2c-2,2.5-1.6,5.8-0.7,7.7c1.1,2.3,1.7,4.1,2.2,5.9c0.7,2.6,0.2,6,0.3,5.7
		h-1.7c0-4.2-1.3-8.2-4.5-9.9c-4.5-2.5-9,1.8-7.5,6.3c0.8,2.4,2.1,3.2,2.5,3.2c0,0-0.6-2.6,1.3-3.9c1.8-1.2,4-0.5,5,1
		c1,1.4,1.1,3.4,1.1,3.4h-3.2v2.4h6.5c0,0-0.2,3.4-3.7,3.1c0,0,0.4,2.7,3.7,1.3c0,0-0.2,2.8,2.1,4.2c2.3-1.4,2.1-4.2,2.1-4.2
		c3.3,1.4,3.7-1.3,3.7-1.3c-3.6,0.3-3.7-3.1-3.7-3.1h6.5v-2.4H514c0,0,0.2-1.9,1.1-3.4c1-1.5,3.2-2.2,5-1c1.9,1.3,1.3,3.9,1.3,3.9
		c0.4,0,1.7-0.8,2.5-3.2c1.4-4.5-3-8.8-7.5-6.3c-3.2,1.8-4.5,5.7-4.5,9.9h-1.7c0,0.3-0.4-3.1,0.3-5.7c0.5-1.8,1.1-3.7,2.2-5.9
		c0.9-2,1.3-5.3-0.7-7.7C510.2,324.4,509.1,323.2,508.7,322.4"/>
	<rect x="557.9" y="320.4" class="st1" width="62.2" height="38.1"/>
	<path class="st2" d="M588.9,322.4c-0.5,0.8-1.5,2-3.2,4.2c-2,2.5-1.6,5.8-0.7,7.7c1.1,2.3,1.7,4.1,2.2,5.9c0.7,2.6,0.2,6,0.3,5.7
		h-1.7c0-4.2-1.3-8.2-4.5-9.9c-4.5-2.5-8.9,1.8-7.5,6.3c0.7,2.4,2.1,3.2,2.4,3.2c0,0-0.6-2.6,1.3-3.9c1.8-1.2,3.9-0.5,5,1
		c1,1.4,1.1,3.4,1.1,3.4h-3.2v2.4h6.5c0,0-0.2,3.4-3.7,3.1c0,0,0.4,2.7,3.7,1.3c0,0-0.2,2.8,2.1,4.2c2.2-1.4,2.1-4.2,2.1-4.2
		c3.3,1.4,3.7-1.3,3.7-1.3c-3.6,0.3-3.7-3.1-3.7-3.1h6.5v-2.4h-3.3c0,0,0.2-1.9,1.1-3.4c1-1.5,3.2-2.2,5-1c1.9,1.3,1.3,3.9,1.3,3.9
		c0.4,0,1.7-0.8,2.4-3.2c1.4-4.5-3-8.8-7.5-6.3c-3.2,1.8-4.5,5.7-4.5,9.9h-1.7c0,0.3-0.4-3.1,0.3-5.7c0.5-1.8,1.1-3.7,2.2-5.9
		c0.9-2,1.3-5.3-0.7-7.7C590.4,324.4,589.4,323.2,588.9,322.4"/>
</g>
</svg>
